<?xml version="1.0" encoding="UTF-8"?>
<svg height="16px" viewBox="0 0 16 16" width="16px" xmlns="http://www.w3.org/2000/svg">
    <g fill="#241f31">
        <path d="m 2 0 c -1.109375 0 -2 0.890625 -2 2 v 12 c 0 1.109375 0.890625 2 2 2 h 12 c 1.109375 0 2 -0.890625 2 -2 v -12 c 0 -1.109375 -0.890625 -2 -2 -2 z m 0 1 h 12 c 0.554688 0 1 0.445312 1 1 v 12 c 0 0.554688 -0.445312 1 -1 1 h -12 c -0.554688 0 -1 -0.445312 -1 -1 v -12 c 0 -0.554688 0.445312 -1 1 -1 z m 0 0"/>
        <path d="m 5.832031 9.332031 c -1.5 0 -3.164062 0.335938 -4.832031 0.667969 h 9 c -1.332031 -0.332031 -2.664062 -0.664062 -4.167969 -0.667969 z m 4.167969 0.667969 h -9 v 5 h 14 v -4.046875 c -0.375 -0.023437 -0.757812 -0.0625 -1.167969 -0.121094 c -1.164062 -0.164062 -2.5 -0.5 -3.832031 -0.832031 z m 0 0"/>
        <path d="m 5 4 c -0.550781 0 -1 0.449219 -1 1 c -0.550781 0 -1 0.449219 -1 1 s 0.449219 1 1 1 c 0.175781 0 0.347656 -0.046875 0.5 -0.136719 c 0.152344 0.089844 0.324219 0.136719 0.5 0.136719 s 0.347656 -0.046875 0.5 -0.136719 c 0.152344 0.089844 0.324219 0.136719 0.5 0.136719 c 0.550781 0 1 -0.449219 1 -1 s -0.449219 -1 -1 -1 c 0 -0.550781 -0.449219 -1 -1 -1 z m 0 0"/>
        <path d="m 14 5 c 0 1.65625 -1.34375 3 -3 3 s -3 -1.34375 -3 -3 s 1.34375 -3 3 -3 s 3 1.34375 3 3 z m 0 0"/>
    </g>
</svg>
